<svg width="800" height="543" viewBox="0 0 800 543" fill="none" xmlns="http://www.w3.org/2000/svg">
<mask id="mask0" mask-type="alpha" maskUnits="userSpaceOnUse" x="0" y="0" width="800" height="543">
<rect width="800" height="543" fill="#C4C4C4"/>
</mask>
<g mask="url(#mask0)">
<circle cx="563" cy="431" r="19" fill="#DA1E1E"/>
<rect width="494.245" height="15.4108" rx="7.70542" transform="matrix(0.83208 0.554655 -0.465474 0.885062 30.1733 -110)" fill="#DA1E1E"/>
<ellipse cx="102.935" cy="138.141" rx="13.6087" ry="15.3209" fill="#DA1E1E"/>
<ellipse cx="12.5988" cy="197.323" rx="29.5988" ry="33.3229" fill="#FFD400"/>
<circle cx="118.5" cy="307.5" r="30.5" fill="#DA1E1E"/>
<circle cx="102.5" cy="481.5" r="30.5" fill="white"/>
<path d="M556.612 320.782C553.976 327.343 545.934 329.577 540.89 325.151L502.157 291.168C496.217 285.956 498.817 275.74 506.638 273.567L565.609 257.179C573.429 255.006 579.953 262.686 576.849 270.411L556.612 320.782Z" fill="#FFD400"/>
<rect width="554.125" height="15.6675" rx="7.83374" transform="matrix(-0.846833 -0.531858 0.444 -0.896027 489.251 639.754)" fill="#FFD400"/>
<rect width="553.423" height="15.685" rx="7.84249" transform="matrix(-0.853482 0.521123 -0.434002 -0.900912 682.144 132.131)" fill="#43AAFF"/>
<path d="M256.923 133.55C263.061 130.777 270.067 135.879 270.336 143.319L274.525 259.16C274.828 267.551 266.526 272.5 260.054 267.786L160.296 195.129C153.824 190.415 154.431 179.861 161.353 176.733L256.923 133.55Z" fill="#43AAFF"/>
</g>
</svg>
