<svg width="1126" height="1024" viewBox="0 0 1126 1024" fill="none" xmlns="http://www.w3.org/2000/svg">
<path d="M294.105 1125.57C274.009 1126.5 258.111 1105.39 263.354 1084.73L624.665 -339.184C628.397 -353.891 641.778 -362.772 656.049 -360.012L1279.45 -239.466C1294.49 -236.558 1305.54 -221.724 1304.76 -205.495L1244.17 1054.96C1243.44 1070.23 1232.42 1082 1218.23 1082.66L294.105 1125.57Z" fill="#1E1E28"/>
<ellipse cx="1048.01" cy="765.151" rx="17.0108" ry="19.1511" fill="#DA1E1E"/>
<rect width="494.245" height="15.4108" rx="7.70542" transform="matrix(0.83208 0.554655 -0.465474 0.885062 517.173 224)" fill="#DA1E1E"/>
<ellipse cx="589.935" cy="472.141" rx="13.6087" ry="15.3209" fill="#DA1E1E"/>
<ellipse cx="499.599" cy="531.323" rx="29.5988" ry="33.3229" fill="#FFD400"/>
<ellipse cx="602.217" cy="641.642" rx="27.2173" ry="30.6417" fill="#DA1E1E"/>
<path d="M1043.61 654.782C1040.98 661.343 1032.93 663.577 1027.89 659.151L989.157 625.168C983.217 619.956 985.817 609.74 993.638 607.567L1052.61 591.179C1060.43 589.006 1066.95 596.686 1063.85 604.411L1043.61 654.782Z" fill="#FFD400"/>
<rect width="554.125" height="15.6675" rx="7.83374" transform="matrix(-0.846833 -0.531858 0.444 -0.896027 1294.25 1023.75)" fill="#FFD400"/>
<rect width="553.423" height="15.685" rx="7.84249" transform="matrix(-0.853482 0.521123 -0.434002 -0.900912 1229.14 398.131)" fill="#43AAFF"/>
<path d="M743.923 467.55C750.061 464.777 757.067 469.879 757.336 477.319L761.525 593.16C761.828 601.551 753.526 606.5 747.054 601.786L647.296 529.129C640.824 524.415 641.431 513.861 648.353 510.733L743.923 467.55Z" fill="#43AAFF"/>
</svg>
