<svg width="800" height="543" viewBox="0 0 800 543" fill="none" xmlns="http://www.w3.org/2000/svg">
<mask id="mask0" mask-type="alpha" maskUnits="userSpaceOnUse" x="0" y="0" width="800" height="543">
<rect width="800" height="543" fill="#C4C4C4"/>
</mask>
<g mask="url(#mask0)">
<path d="M504.74 229.523C510.878 226.75 517.884 231.852 518.153 239.292L522.342 355.133C522.645 363.524 514.343 368.473 507.871 363.759L408.113 291.102C401.641 286.388 402.248 275.834 409.17 272.706L504.74 229.523Z" fill="#43AAFF"/>
<circle cx="644.5" cy="405.5" r="30.5" fill="white"/>
<rect width="380.811" height="15.6675" rx="7.83374" transform="matrix(0.746369 -0.665532 0.737217 0.675656 242 317.442)" fill="white"/>
<path d="M216.38 275.631C221.725 279.73 220.537 288.315 214.107 292.067L113.987 350.485C106.735 354.717 98.4511 349.738 99.5481 341.807L116.458 219.557C117.555 211.627 127.143 207.175 133.17 211.799L216.38 275.631Z" fill="#FFD400"/>
<path d="M622.612 291.782C619.976 298.343 611.934 300.577 606.89 296.151L568.157 262.168C562.217 256.956 564.817 246.74 572.638 244.567L631.609 228.179C639.429 226.006 645.953 233.686 642.849 241.411L622.612 291.782Z" fill="#DA1E1E"/>
<ellipse cx="794.599" cy="196.323" rx="29.5988" ry="33.3229" fill="#FFD400"/>
<circle cx="223" cy="476" r="19" fill="#DA1E1E"/>
<rect width="494.245" height="15.4108" rx="7.70542" transform="matrix(0.83208 0.554655 -0.465474 0.885062 518.173 457)" fill="#DA1E1E"/>
<ellipse cx="102.935" cy="138.141" rx="13.6087" ry="15.3209" fill="#DA1E1E"/>
<circle cx="242.5" cy="125.5" r="30.5" fill="#43AAFF"/>
<rect width="553.423" height="15.685" rx="7.84249" transform="matrix(-0.853482 0.521123 -0.434002 -0.900912 1097.14 -168.869)" fill="#43AAFF"/>
</g>
</svg>
